<?xml version="1.0" encoding="utf-8"?>
<!-- Generator: Adobe Illustrator 19.2.0, SVG Export Plug-In . SVG Version: 6.00 Build 0)  -->
<svg version="1.1" id="Capa_1" xmlns="http://www.w3.org/2000/svg" xmlns:xlink="http://www.w3.org/1999/xlink" x="0px" y="0px"
	 viewBox="0 0 640 480" style="enable-background:new 0 0 640 480;" xml:space="preserve">
<style type="text/css">
	.st0{fill:url(#SVGID_1_);}
	.st1{fill:url(#SVGID_2_);}
	.st2{fill:url(#SVGID_3_);}
	.st3{fill:url(#SVGID_4_);}
</style>
<radialGradient id="SVGID_1_" cx="308.7774" cy="246.5448" r="371.5914" gradientTransform="matrix(0.995 0 0 -0.9974 0 478.752)" gradientUnits="userSpaceOnUse">
	<stop  offset="0" style="stop-color:#FFFFFF"/>
	<stop  offset="1" style="stop-color:#33657E"/>
</radialGradient>
<rect class="st0" width="640" height="480"/>
<g>
	
		<radialGradient id="SVGID_2_" cx="371.1434" cy="338.3525" r="238.4477" gradientTransform="matrix(1 0 0 1 0 226.0771)" gradientUnits="userSpaceOnUse">
		<stop  offset="0" style="stop-color:#33657E"/>
		<stop  offset="1" style="stop-color:#293A44"/>
	</radialGradient>
	<path class="st1" d="M301.6,316.1h-44.1V149.9c0-7-0.5-13.5-1.4-19.4c-0.9-5.9-2.5-11.1-4.7-15.4s-5.4-7.6-9.4-10
		c-4.1-2.3-9.3-3.5-15.6-3.5c-7.7,0-14.3,2.4-19.9,7.2c-5.6,4.8-9.4,11.2-11.5,19.4l-40.6-11.5c4.4-16.3,12.6-29.5,24.7-39.5
		c12-10,28-15,48.1-15c15.4,0,28,2.8,37.8,8.4s17.4,12.7,22.7,21.3c5.4,8.6,9,18,11,28s3,19.6,3,28.7v167.5H301.6z"/>
	
		<radialGradient id="SVGID_3_" cx="371.1434" cy="273.6075" r="238.4477" gradientTransform="matrix(1 0 0 -1 0 480)" gradientUnits="userSpaceOnUse">
		<stop  offset="0" style="stop-color:#33657E"/>
		<stop  offset="1" style="stop-color:#293A44"/>
	</radialGradient>
	<path class="st2" d="M257.6,176.5h44.1V385H407v39.2H257.6V176.5z"/>
	
		<radialGradient id="SVGID_4_" cx="371.1434" cy="273.6075" r="238.4477" gradientTransform="matrix(1 0 0 -1 0 480)" gradientUnits="userSpaceOnUse">
		<stop  offset="0" style="stop-color:#33657E"/>
		<stop  offset="1" style="stop-color:#293A44"/>
	</radialGradient>
	<path class="st3" d="M448.2,120.2c-6.5-8.9-15-15.3-25.5-19.4s-20.8-6.1-30.8-6.1c-12.8,0-24.5,2.3-35,7s-19.5,11.1-27.1,19.2
		c-7.6,8.2-13.4,17.7-17.5,28.7s-6.1,22.9-6.1,35.7c0,13.5,2,25.9,5.9,37.1c4,11.2,9.6,20.8,17,28.9c7.3,8,16.1,14.3,26.4,18.7
		c10.3,4.4,21.8,6.6,34.6,6.6c13.3,0,25.1-2.6,35.3-7.9c10.3-5.2,18.5-12.2,24.8-20.8l35.3,24.8c-11,13.8-24.4,24.4-40.2,32
		c-15.9,7.6-34.4,11.4-55.6,11.4c-19.4,0-37.1-3.2-53.3-9.6c-16.2-6.4-30.1-15.4-41.8-26.9c-11.7-11.5-20.8-25.3-27.3-41.3
		s-9.8-33.6-9.8-53c0-19.8,3.4-37.7,10.3-53.7s16.3-29.6,28.3-40.7c12-11.2,26.2-19.8,42.5-25.9s34-9.1,53.2-9.1
		c7.9,0,16.2,0.8,24.8,2.3c8.6,1.5,16.9,3.8,24.8,7c7.9,3.1,15.4,7.1,22.4,11.7c7,4.7,12.9,10.3,17.8,16.8L448.2,120.2z"/>
</g>
</svg>
